<?xml version="1.0" standalone="no"?>
<!DOCTYPE svg PUBLIC "-//W3C//DTD SVG 20010904//EN"
 "http://www.w3.org/TR/2001/REC-SVG-20010904/DTD/svg10.dtd">
<svg version="1.0" xmlns="http://www.w3.org/2000/svg"
 width="1280.000000pt" height="1280.000000pt" viewBox="0 0 1280.000000 1280.000000"
 preserveAspectRatio="xMidYMid meet">
<metadata>
Created by potrace 1.14, written by Peter Selinger 2001-2017
</metadata>
<g transform="translate(0.000000,1280.000000) scale(0.100000,-0.100000)"
fill="#000000" stroke="none">
<path d="M2234 6110 l0 -2160 1003 0 1003 0 -2 323 -3 322 -627 1 c-621 1
-627 2 -661 23 -66 40 -64 28 -65 594 0 488 1 514 20 547 10 19 33 43 49 53
29 16 119 17 1442 17 1382 0 1413 0 1444 -20 71 -43 68 -16 68 -595 l0 -521
-25 -37 c-15 -22 -39 -42 -59 -48 -23 -8 -159 -12 -418 -11 l-383 0 0 -324 0
-324 423 1 c467 1 503 5 638 63 126 55 239 144 317 250 l36 49 25 -30 c22 -25
276 -328 288 -343 3 -3 19 11 36 30 39 44 327 386 343 409 10 12 12 -21 13
-159 0 -96 0 -196 0 -222 l1 -48 680 0 680 0 0 324 0 323 -293 1 c-162 0 -308
3 -325 7 -39 8 -92 67 -93 103 -1 15 -2 650 -3 1412 -1 886 2 1394 8 1410 14
35 47 70 76 82 15 6 558 9 1432 9 1560 0 1444 6 1487 -66 l21 -36 0 -1412 c0
-1383 0 -1413 -20 -1444 -41 -69 -5 -66 -807 -66 l-723 1 0 -325 0 -324 778 3
c771 4 778 4 850 26 184 56 335 167 440 322 20 30 37 57 38 60 0 3 12 30 27
61 23 52 34 83 53 164 4 17 9 694 10 1507 2 1572 4 1521 -45 1662 -85 244
-308 440 -566 496 -88 19 -140 19 -1897 20 l-1808 0 -1 -37 c0 -21 0 -667 -1
-1436 l0 -1399 -31 -36 c-18 -20 -34 -39 -37 -42 -3 -3 -25 -30 -50 -60 -50
-61 -67 -81 -104 -125 -15 -16 -54 -65 -89 -107 -34 -42 -67 -77 -73 -77 -7
-1 -19 9 -27 22 -9 12 -27 35 -41 50 -14 16 -49 58 -78 93 l-53 63 -1 288 c-1
158 -4 308 -8 333 -22 157 -90 302 -196 417 l-52 58 17 45 c25 65 44 137 52
195 4 28 6 282 6 565 -1 485 -2 519 -21 592 -80 299 -303 515 -602 584 -19 5
-818 10 -1776 11 l-1740 3 0 -2160z m3420 1495 c24 -11 41 -30 54 -58 18 -40
19 -68 18 -507 -1 -442 -2 -467 -21 -497 -42 -70 55 -66 -1395 -66 -955 0
-1316 4 -1342 12 -19 6 -45 26 -59 44 l-24 32 -2 475 c-1 518 -1 519 55 556
15 10 45 21 67 24 22 3 619 4 1327 3 1176 -2 1290 -3 1322 -18z"/>
<path d="M4309 6933 c-1 -5 -2 -95 -3 -201 l-1 -192 554 0 554 0 -20 23 c-11
12 -31 36 -45 52 -14 17 -54 64 -89 105 -35 41 -84 100 -109 130 -25 30 -52
63 -60 72 -13 17 -44 18 -397 18 -211 0 -384 -3 -384 -7z"/>
<path d="M8378 6882 c-25 -31 -161 -194 -302 -362 l-256 -305 0 -502 c0 -277
2 -503 4 -503 2 0 31 34 65 75 34 41 68 80 74 87 7 7 115 137 242 288 126 151
232 277 235 280 3 3 28 33 57 67 28 34 53 57 55 50 2 -7 3 -490 3 -1074 l-1
-1063 325 0 326 0 0 1510 0 1510 -390 -1 -390 0 -47 -57z"/>
<path d="M4308 5748 c-2 -7 -4 -420 -3 -918 l1 -905 319 -3 c186 -1 321 2 324
7 3 5 6 418 5 918 l0 908 -321 3 c-252 2 -322 0 -325 -10z"/>
<path d="M5352 5603 c73 -87 157 -187 187 -223 29 -36 65 -78 80 -95 14 -16
59 -70 100 -120 41 -49 89 -107 108 -128 l33 -37 0 380 0 380 -320 0 -321 0
133 -157z"/>
</g>
</svg>
